<svg version="1.1" xmlns="http://www.w3.org/2000/svg" style="display: block;" viewBox="0 0 2048 2048" width="1024" height="1024" preserveAspectRatio="none">
<path transform="translate(0,0)" fill="rgb(255,255,255)" d="M 0 0 L 2048 0 L 2048 2048 L 0 2048 L 0 0 z"/>
<path transform="translate(0,0)" fill="rgb(245,178,38)" d="M 1038.12 738.249 C 1072.92 720.123 1110.12 714.859 1147.94 726.741 C 1181.73 737.481 1209.88 761.201 1226.2 792.687 C 1236.43 812.69 1239.27 830.273 1240.89 852.278 C 1217.73 852.552 1194.56 852.68 1171.4 852.661 L 1171.62 895.289 C 1171.81 915.525 1171.22 938.509 1171.81 958.357 L 1156.62 974.886 L 1139.24 993.28 C 1132.97 985.212 1126.55 977.265 1119.98 969.445 C 1115.38 964.467 1108.14 955.426 1104.31 950.08 C 1088.47 932.382 1067.13 902.343 1052.5 883.084 C 1051.3 881.505 1044.82 867.479 1043.3 864.432 C 1038.85 861.293 1035.5 855.479 1026.94 850.656 C 1012.95 842.776 1003.42 842.338 988.139 846.066 C 983.319 847.196 975.538 851.799 971.491 852.193 C 958.744 853.436 943.259 852.803 930.334 852.71 L 859.463 852.454 C 866.143 842.455 878.793 825.061 886.237 816.278 C 907.464 788.149 945.657 765.45 980.885 760.834 C 988.127 759.885 1005.49 760.535 1010 758.8 C 1019.78 750.114 1026.95 745.022 1038.12 738.249 z"/>
<path transform="translate(0,0)" fill="rgb(209,16,102)" d="M 1038.12 738.249 C 1072.92 720.123 1110.12 714.859 1147.94 726.741 C 1181.73 737.481 1209.88 761.201 1226.2 792.687 C 1236.43 812.69 1239.27 830.273 1240.89 852.278 C 1217.73 852.552 1194.56 852.68 1171.4 852.661 L 1171.62 895.289 L 1170.32 895.712 C 1170.1 900.009 1169.87 901.914 1169.03 906.131 C 1168.74 900.91 1169.06 898.02 1165.76 893.64 C 1162.15 887.013 1159.2 859.75 1151.61 854.131 C 1152.69 835.174 1145 822.569 1130.07 811.686 C 1120.95 778.027 1076.24 750.778 1044.6 743.839 C 1039.99 742.827 1040.18 742.023 1038.12 738.249 z"/>
<path transform="translate(0,0)" fill="rgb(170,19,84)" d="M 1151.61 854.131 C 1159.2 859.75 1162.15 887.013 1165.76 893.64 C 1169.06 898.02 1168.74 900.91 1169.03 906.131 C 1169.87 901.914 1170.1 900.009 1170.32 895.712 L 1171.62 895.289 C 1171.81 915.525 1171.22 938.509 1171.81 958.357 L 1156.62 974.886 L 1139.24 993.28 C 1132.97 985.212 1126.55 977.265 1119.98 969.445 C 1133.22 949.239 1140.65 924.932 1141.53 900.752 C 1141.78 893.965 1140.61 886.531 1140.68 879.378 C 1147.4 870.747 1150.07 864.859 1151.61 854.131 z"/>
<path transform="translate(0,0)" fill="rgb(209,16,102)" d="M 1165.76 893.64 C 1169.06 898.02 1168.74 900.91 1169.03 906.131 C 1169.87 901.914 1170.1 900.009 1170.32 895.712 L 1171.62 895.289 C 1171.81 915.525 1171.22 938.509 1171.81 958.357 L 1156.62 974.886 C 1147.19 959.463 1174.95 924.901 1167.51 906.668 C 1166.64 904.543 1166.01 896.414 1165.76 893.64 z"/>
<path transform="translate(0,0)" fill="rgb(236,141,37)" d="M 859.463 852.454 C 866.143 842.455 878.793 825.061 886.237 816.278 L 887.241 816.377 C 895.658 817.144 904.453 816.766 912.983 817.433 C 943.914 819.85 963.373 828.584 988.139 846.066 C 983.319 847.196 975.538 851.799 971.491 852.193 C 958.744 853.436 943.259 852.803 930.334 852.71 L 859.463 852.454 z"/>
<path transform="translate(0,0)" fill="rgb(170,19,84)" d="M 1010 758.8 C 1019.78 750.114 1026.95 745.022 1038.12 738.249 C 1040.18 742.023 1039.99 742.827 1044.6 743.839 C 1076.24 750.778 1120.95 778.027 1130.07 811.686 C 1122.31 808.277 1116.3 807.178 1108.05 805.863 C 1105.1 803.623 1096.54 795.027 1092.7 791.713 C 1077.31 778.072 1058.96 769.055 1039.28 763.444 C 1029.98 760.792 1018.67 761.58 1010 758.8 z"/>
<path transform="translate(0,0)" fill="rgb(255,255,255)" d="M 1108.05 805.863 C 1116.3 807.178 1122.31 808.277 1130.07 811.686 C 1145 822.569 1152.69 835.174 1151.61 854.131 C 1150.07 864.859 1147.4 870.747 1140.68 879.378 C 1139.05 873.759 1137.87 865.163 1136.21 858.733 C 1130.37 836.169 1120.38 824.004 1108.05 805.863 z"/>
<path transform="translate(0,0)" fill="rgb(236,141,37)" d="M 1043.3 864.432 C 1051.28 864.743 1065.22 878.59 1070.53 884.239 C 1085.92 900.591 1102.63 927.147 1104.31 950.08 C 1088.47 932.382 1067.13 902.343 1052.5 883.084 C 1051.3 881.505 1044.82 867.479 1043.3 864.432 z"/>
<path transform="translate(0,0)" fill="rgb(21,124,205)" d="M 966.04 867.734 C 984.227 868.024 1002.42 868.13 1020.61 868.052 C 1051.8 910.358 1091.09 957.322 1124.27 998.98 L 1163.32 1047.92 C 1169.72 1056.04 1180.39 1070.54 1186.95 1077.46 C 1191.02 1084.96 1209.14 1106.61 1215.44 1114.44 C 1234.75 1138.22 1253.92 1162.12 1272.96 1186.12 L 1272.96 1227.83 C 1247.72 1227.76 1222.49 1227.84 1197.25 1228.08 C 1145.05 1164.78 1094.54 1096.06 1041.06 1033.58 C 1039.04 1029.35 1021.43 1007.94 1017.55 1003.27 C 996.964 978.51 976.334 951.717 955.125 927.657 C 955.176 914.778 955.507 900.563 954.838 887.832 C 958.353 881.713 963.095 873.946 966.04 867.734 z"/>
<path transform="translate(0,0)" fill="rgb(0,61,70)" d="M 595.357 867.304 L 694.854 867.213 L 770.92 993.534 C 783.151 1020.65 800.999 1060.17 814.284 1085.96 C 815.454 1099.12 814.794 1120.96 814.804 1134.88 L 814.7 1228.13 L 727.439 1228.14 C 728.01 1198.63 727.248 1168.32 727.621 1138.68 C 727.764 1127.36 728.327 1094.64 726.686 1084.71 C 725.878 1079.83 705.05 1046.69 701 1039.93 L 595.357 867.304 z"/>
<path transform="translate(0,0)" fill="rgb(236,43,37)" d="M 1569 998.017 C 1576.91 976.054 1581.93 954.987 1585.24 931.841 C 1586.66 921.879 1584.71 902.596 1588.05 894.208 C 1627.51 921.784 1654.61 963.716 1663.54 1011.02 C 1672.96 1059.76 1662.54 1110.23 1634.59 1151.25 C 1630.36 1157.38 1625.77 1163.26 1620.82 1168.83 C 1641.32 1193.95 1663.73 1222.45 1685.28 1246.31 C 1653.32 1246.06 1620.28 1245.56 1588.35 1246.45 C 1557.14 1209.82 1527.49 1172.14 1496.36 1135.47 C 1485 1122.08 1473.91 1108.5 1462.83 1094.89 C 1494.98 1095.09 1527.14 1094.83 1559.29 1094.09 L 1565.61 1102.66 C 1583.2 1064.55 1587.29 1036.77 1569 998.017 z"/>
<path transform="translate(0,0)" fill="rgb(236,43,37)" d="M 1519.2 1229.6 C 1500.78 1232.22 1488.02 1233.42 1468.96 1232.03 C 1419.15 1228.71 1372.76 1205.5 1340.25 1167.61 C 1308.42 1129.95 1292.8 1081.21 1296.81 1032.06 C 1300.84 980.212 1325.2 935.483 1364.6 902.01 C 1364.82 908.061 1364.18 914.036 1363.71 920.051 C 1361.19 952.382 1365.06 984.953 1373.85 1016.11 C 1375.62 1022.37 1378.66 1031.88 1382.24 1037.3 C 1381.93 1074.66 1393.15 1105.18 1424.59 1128.07 C 1435.63 1136.1 1444.32 1138.24 1456.81 1142.9 C 1467.56 1145.01 1474.03 1145.18 1485.02 1144.85 C 1503.02 1168.03 1528.09 1199.29 1547.43 1221.42 C 1538.2 1224.71 1528.77 1227.45 1519.2 1229.6 z"/>
<path transform="translate(0,0)" fill="rgb(200,28,27)" d="M 1456.81 1142.9 C 1467.56 1145.01 1474.03 1145.18 1485.02 1144.85 C 1503.02 1168.03 1528.09 1199.29 1547.43 1221.42 C 1538.2 1224.71 1528.77 1227.45 1519.2 1229.6 C 1515.59 1217.27 1481.88 1176.16 1472.07 1163.54 C 1467.11 1157.17 1461.95 1149.26 1456.81 1142.9 z"/>
<path transform="translate(0,0)" fill="rgb(21,124,205)" d="M 396.963 867.259 L 483.523 867.098 C 485.235 931.155 483.494 1002.68 483.401 1067.36 L 483.451 1118.77 C 483.464 1125.15 483.184 1132.37 483.543 1138.7 C 483.643 1140.46 483.94 1140.09 485.724 1141.39 C 477.545 1143.29 411.091 1216.34 397.003 1227.95 C 397.682 1191.73 396.979 1152.87 396.995 1116.41 L 396.963 867.259 z"/>
<path transform="translate(0,0)" fill="rgb(209,16,102)" d="M 913.64 1067.85 L 939.915 1038.47 C 940.133 1079.1 940.193 1119.77 940.332 1160.41 C 940.37 1171.54 938.322 1183.83 938.343 1194.27 C 940.668 1210.15 944.812 1220.28 958.21 1230.71 C 958.385 1230.85 960.062 1232.01 960.271 1232.26 C 970.203 1236.82 973.399 1237.54 984.334 1238.54 C 1023.35 1268.69 1042.69 1275.67 1091.62 1276.89 C 1083.12 1285.53 1075.34 1293.56 1065.39 1300.67 C 1045.05 1316.91 1016.73 1325.62 990.854 1326.68 C 915.357 1329.8 852.178 1270.27 850.905 1194.49 C 849.969 1138.81 877.19 1106.07 913.64 1067.85 z"/>
<path transform="translate(0,0)" fill="rgb(170,19,84)" d="M 913.64 1067.85 L 939.915 1038.47 C 940.133 1079.1 940.193 1119.77 940.332 1160.41 C 940.37 1171.54 938.322 1183.83 938.343 1194.27 L 937.4 1196.3 L 935.614 1196.13 C 931.838 1192.35 926.278 1179.76 924.045 1174.69 C 911.225 1145.53 908.46 1113.3 913.62 1082.06 C 914.308 1077.89 915.069 1071.9 913.64 1067.85 z"/>
<path transform="translate(0,0)" fill="rgb(170,19,84)" d="M 960.271 1232.26 C 970.203 1236.82 973.399 1237.54 984.334 1238.54 C 1023.35 1268.69 1042.69 1275.67 1091.62 1276.89 C 1083.12 1285.53 1075.34 1293.56 1065.39 1300.67 C 1057.3 1294.99 1044.12 1294.58 1033.68 1290.87 C 1005.66 1280.91 973.467 1259.66 960.271 1232.26 z"/>
<path transform="translate(0,0)" fill="rgb(9,18,68)" d="M 1186.84 867.607 L 1273.11 867.345 L 1272.96 1186.12 C 1253.92 1162.12 1234.75 1138.22 1215.44 1114.44 C 1209.14 1106.61 1191.02 1084.96 1186.95 1077.46 L 1186.84 867.607 z"/>
<path transform="translate(0,0)" fill="rgb(209,16,102)" d="M 1364.6 902.01 C 1390.96 880.68 1422.59 866.859 1456.15 862.008 C 1501.39 855.717 1551.26 866.637 1588.05 894.208 C 1584.71 902.596 1586.66 921.879 1585.24 931.841 C 1581.93 954.987 1576.91 976.054 1569 998.017 C 1554.76 973.307 1535.86 956.701 1507.95 949.067 C 1482.38 941.858 1454.99 945.392 1432.09 958.853 C 1408.6 972.4 1391.69 994.987 1385.32 1021.34 C 1383.98 1026.6 1382.95 1031.92 1382.24 1037.3 C 1378.66 1031.88 1375.62 1022.37 1373.85 1016.11 C 1365.06 984.953 1361.19 952.382 1363.71 920.051 C 1364.18 914.036 1364.82 908.061 1364.6 902.01 z"/>
<path transform="translate(0,0)" fill="rgb(9,18,68)" d="M 485.724 1141.39 C 539.241 1140.27 595.327 1141.3 649.076 1141.1 L 649.073 1227.87 L 479.301 1228 C 456.572 1228.01 418.894 1229.28 397.003 1227.95 C 411.091 1216.34 477.545 1143.29 485.724 1141.39 z"/>
<path transform="translate(0,0)" fill="rgb(9,18,68)" d="M 955.125 927.657 C 976.334 951.717 996.964 978.51 1017.55 1003.27 C 1021.43 1007.94 1039.04 1029.35 1041.06 1033.58 C 1040.75 1084.57 1040.71 1135.57 1040.92 1186.56 C 1012.17 1186.26 983.77 1186.81 955.113 1186.62 L 955.125 927.657 z"/>
<path transform="translate(0,0)" fill="rgb(236,43,37)" d="M 850.062 867.909 C 882.855 867.77 915.77 868.252 948.528 867.636 C 938.362 886.986 924.099 908.09 912.458 926.868 L 842.569 1039.74 C 835.417 1051.46 819.773 1074.85 814.284 1085.96 C 800.999 1060.17 783.151 1020.65 770.92 993.534 C 798.315 952.836 823.588 909.142 850.062 867.909 z"/>
<path transform="translate(0,0)" fill="rgb(21,124,205)" d="M 1105.69 1182.2 C 1116.17 1175.97 1119.01 1173.49 1126.96 1164.24 C 1146.28 1187.76 1165.38 1211.46 1184.24 1235.35 C 1176.85 1242.25 1170.57 1247.56 1162.3 1253.47 C 1136.73 1269.95 1121.35 1274.11 1091.62 1276.89 C 1042.69 1275.67 1023.35 1268.69 984.334 1238.54 C 971.89 1225.76 965.92 1217.12 957.474 1201.51 C 989.92 1202.3 1023.39 1201.93 1055.92 1201.92 L 1056.12 1181.75 C 1075.48 1189.8 1086.03 1190.57 1105.69 1182.2 z"/>
<path transform="translate(0,0)" fill="rgb(11,89,159)" d="M 1105.69 1182.2 C 1116.17 1175.97 1119.01 1173.49 1126.96 1164.24 C 1146.28 1187.76 1165.38 1211.46 1184.24 1235.35 C 1176.85 1242.25 1170.57 1247.56 1162.3 1253.47 C 1141.24 1223.42 1128.83 1209.8 1105.69 1182.2 z"/>
</svg>